<svg width="18" height="24" viewBox="0 0 18 24" fill="none" xmlns="http://www.w3.org/2000/svg">
<path fill-rule="evenodd" clip-rule="evenodd" d="M5.87506 4.12362C6.74401 3.25467 7.92256 2.7665 9.15145 2.7665C10.3803 2.7665 11.5589 3.25467 12.4278 4.12362C13.2521 4.94792 13.7338 6.05082 13.7811 7.211H4.5218C4.56912 6.05082 5.05076 4.94792 5.87506 4.12362ZM2.52063 7.211C2.56878 5.52023 3.26145 3.90881 4.46085 2.70941C5.70487 1.46538 7.39213 0.7665 9.15145 0.7665C10.9108 0.7665 12.598 1.46539 13.842 2.70941C15.0414 3.90881 15.7341 5.52023 15.7823 7.211H16.534H17.534V8.211V22.976V23.976H16.534H1.76904H0.769043V22.976V8.211V7.211H1.76904H2.52063ZM2.76904 21.976V9.211H15.534V21.976H2.76904Z" fill="black"/>
</svg>
