<svg width="133" height="40" viewBox="0 0 133 40" fill="none" xmlns="http://www.w3.org/2000/svg">
<path fill-rule="evenodd" clip-rule="evenodd" d="M22.0172 31.55C21.1449 31.9665 19.7865 32.1975 18.5258 32.1975C12.9511 32.1975 9.02452 28.8184 9.02452 22.9407V0H15.86V9.10211H21.7254V15.304H15.86V22.6165C15.86 24.7462 17.5558 26.0878 19.5435 26.0878C20.2227 26.0878 21.1439 25.9499 21.6766 25.7645L22.0172 31.55ZM47.7794 31.8276V18.9607C47.7794 12.5278 44.0948 8.63907 37.9884 8.63907C35.2716 8.63907 33.042 9.88937 31.5393 12.0648V0H24.7038V31.8276H31.5393V19.7936C31.5393 16.832 33.3816 14.8876 36.2416 14.8876C39.0539 14.8876 40.9439 16.832 40.9439 19.7936V31.8276H47.7794ZM73.5301 31.8276H80.3655V0H73.5301V31.8276ZM97.8695 32.2907C94.5743 32.2907 92.0051 30.9948 90.357 28.634V31.8267H83.5215V0H90.357V12.2958C92.0051 9.93598 94.5733 8.63907 97.8705 8.63907C104.027 8.63907 108.923 13.9159 108.923 20.4411C108.923 26.9672 104.027 32.2897 97.8705 32.2897L97.8695 32.2907ZM96.319 14.842C92.974 14.842 90.357 17.294 90.357 20.4411C90.357 23.6357 92.974 26.0412 96.318 26.0412C99.6163 26.0412 102.282 23.5891 102.282 20.4411C102.282 17.3406 99.6163 14.842 96.319 14.842ZM133 9.1018L119.765 39.3718H112.446L116.856 29.9762L107.695 9.1018H115.063L120.347 22.3851L125.633 9.1018H133ZM70.8102 31.8276H64.3632V29.0047C62.9571 31.2257 60.7274 32.2906 57.5766 32.2906C53.3592 32.2906 50.2074 29.2823 50.2074 25.4868C50.2074 20.7196 54.6189 18.219 61.309 18.219H64.3622V17.7104C64.3622 15.6738 62.5209 13.9605 59.8063 13.9605C57.237 13.9605 54.7166 15.304 53.407 16.8775L49.6746 13.082C51.7589 10.4892 55.8309 8.638 59.8063 8.638C66.5451 8.638 70.8102 12.3879 70.8102 17.8492V31.8276ZM64.3632 22.2931H60.9694C57.964 22.2931 56.1705 23.1726 56.1705 24.885C56.1705 26.2731 57.3336 27.1992 59.1759 27.1992C62.1813 27.1992 64.3632 25.2558 64.3632 22.9872V22.2931ZM7.42784 13.5666C7.61527 13.1344 7.71177 12.6712 7.71183 12.2035C7.71183 11.2581 7.31849 10.3515 6.61834 9.68298C5.91819 9.01451 4.96858 8.63896 3.97841 8.63896C2.98825 8.63896 2.03864 9.01451 1.33849 9.68298C0.638336 10.3515 0.244995 11.2581 0.244995 12.2035C0.245063 12.6716 0.341699 13.1351 0.529383 13.5675C0.717068 13.9999 0.992127 14.3928 1.33886 14.7238C1.68558 15.0547 2.09719 15.3172 2.55018 15.4963C3.00316 15.6754 3.48865 15.7675 3.97893 15.7675C4.46921 15.7674 4.95468 15.6751 5.40761 15.4959C5.86055 15.3168 6.27208 15.0541 6.61871 14.7231C6.96534 14.3921 7.24028 13.9991 7.42784 13.5666Z" fill="black"/>
</svg>
