<svg width="40" height="40" viewBox="0 0 40 40" fill="none" xmlns="http://www.w3.org/2000/svg">
<path fill-rule="evenodd" clip-rule="evenodd" d="M13.987 13.999C15.3367 12.6493 17.1673 11.891 19.076 11.891C20.9848 11.891 22.8154 12.6493 24.1651 13.999C25.5148 15.3487 26.273 17.1792 26.273 19.088C26.273 20.9968 25.5148 22.8273 24.1651 24.177C22.8154 25.5267 20.9848 26.285 19.076 26.285C17.1673 26.285 15.3367 25.5267 13.987 24.177C12.6373 22.8273 11.879 20.9968 11.879 19.088C11.879 17.1792 12.6373 15.3487 13.987 13.999ZM19.076 9.891C16.6368 9.891 14.2975 10.86 12.5728 12.5847C10.848 14.3095 9.87903 16.6488 9.87903 19.088C9.87903 21.5272 10.848 23.8665 12.5728 25.5913C14.2975 27.316 16.6368 28.285 19.076 28.285C21.1798 28.285 23.2092 27.5642 24.8342 26.2594L29.2579 30.6831L30.6722 29.2689L26.2483 24.8451C27.5526 23.2203 28.273 21.1913 28.273 19.088C28.273 16.6488 27.3041 14.3095 25.5793 12.5847C23.8545 10.86 21.5152 9.891 19.076 9.891Z" fill="black"/>
</svg>
